<?xml version="1.0"?>
<svg width="400" height="400" xmlns="http://www.w3.org/2000/svg" xmlns:svg="http://www.w3.org/2000/svg" xmlns:xlink="http://www.w3.org/1999/xlink">
 <!-- Created with SVG-edit - https://github.com/SVG-Edit/svgedit-->
 <defs>
  <symbol clip-rule="evenodd" fill-rule="evenodd" height="4267px" id="svg_1" version="1.1" width="4267px" xmlns="http://www.w3.org/2000/svg" xmlns:xlink="http://www.w3.org/1999/xlink">
   <g>
    <path d="m2076.5,619.5c371.92,-8.63 705.25,98.87 1000,322.5c262.21,206.35 445.71,468.51 550.5,786.5c89.99,283.39 104.99,570.72 45,862c-71.68,329.22 -227.18,610.72 -466.5,844.5c-214.54,204.64 -467.88,338.64 -760,402c-354.75,70.13 -693.42,23.8 -1016,-139c-282.52,-148.85 -502.35,-362.35 -659.5,-640.5c-168.99,-308.27 -236.32,-637.6 -202,-988c39.96,-358.78 179.29,-671.78 418,-939c210.64,-229.68 467.48,-384.51 770.5,-464.5c105.23,-26.39 211.9,-41.89 320,-46.5zm158,176c121.14,-2.82 240.14,11.68 357,43.5c79.99,22.41 153.99,57.08 222,104c171.98,129.1 247.15,301.26 225.5,516.5c-5.7,45.49 -17.04,89.49 -34,132c-6.22,15.3 -15.06,28.8 -26.5,40.5c-2.89,2.61 -6.22,4.44 -10,5.5c-1.77,-0.59 -3.43,-1.42 -5,-2.5c-15.71,-21.37 -34.37,-39.71 -56,-55c-9.13,-5.64 -18.13,-11.47 -27,-17.5c-0.83,-26.99 -1.33,-53.99 -1.5,-81c-4.28,-96.54 -35.61,-182.87 -94,-259c-22.56,-24.56 -46.4,-47.73 -71.5,-69.5c-6,-4.67 -12,-9.33 -18,-14c-5,-3 -10.33,-5.17 -16,-6.5c-0.94,0.11 -1.78,0.44 -2.5,1c-0.67,1.67 -0.67,3.33 0,5c9.82,11.64 19.15,23.64 28,36c29.51,51.7 43.51,107.37 42,167c-4.63,32.24 -14.3,62.9 -29,92c-1.42,2.51 -3.09,4.84 -5,7c-1.8,-19.64 -1.97,-39.31 -0.5,-59c1.07,-41.14 -8.09,-79.81 -27.5,-116c-8.59,-14.85 -17.92,-29.18 -28,-43c-29.36,-37.7 -63.53,-70.2 -102.5,-97.5c-17.77,-11.09 -36.43,-20.42 -56,-28c-4.63,-1.56 -9.3,-1.73 -14,-0.5c3.64,2.26 7.64,3.93 12,5c1.1,1.13 0.77,1.96 -1,2.5c-4.38,-0.01 -8.72,-0.67 -13,-2c-41.46,-17.6 -84.12,-31.6 -128,-42c-83.33,-0.67 -166.67,-0.67 -250,0c-61.62,-0.25 -122.96,3.75 -184,12c-114.5,16.59 -213.17,64.59 -296,144c-44.88,41.88 -80.05,90.71 -105.5,146.5c-11.45,27.81 -20.12,56.48 -26,86c-2.53,9.2 -8.03,16.03 -16.5,20.5c-41.17,22.51 -78.34,50.34 -111.5,83.5c-5.76,10.52 -12.76,20.18 -21,29c-19.67,21 -39.33,42 -59,63c-6.16,-26.78 -7.16,-53.78 -3,-81c7.71,-72.78 27.37,-142.12 59,-208c76.43,-154.45 185.27,-281.28 326.5,-380.5c142.75,-95.04 299.75,-152.37 471,-172c32.08,-3.46 64.08,-5.96 96,-7.5zm293,336c-10.69,-6.35 -20.69,-13.68 -30,-22c3.57,-0.75 6.9,0.08 10,2.5c7.17,6 13.84,12.5 20,19.5zm-428,28c78.14,-2.15 154.8,7.35 230,28.5c21.43,6.13 40.6,16.3 57.5,30.5c4.71,5.09 7.54,11.09 8.5,18c-7.68,67.46 -16.52,134.79 -26.5,202c-3.67,26.35 -10,52.01 -19,77c-9.71,20.05 -22.87,37.55 -39.5,52.5c-11.74,9.02 -25.07,13.69 -40,14c-37.72,0.42 -74.72,-4.58 -111,-15c-2.17,-0.83 -3.67,-2.33 -4.5,-4.5c-6.55,-18.98 -13.88,-37.65 -22,-56c-1.33,-1.33 -2.67,-1.33 -4,0c-5.99,12.96 -10.99,26.29 -15,40c-2.4,5.63 -5.9,10.46 -10.5,14.5c-20.77,11.7 -43.1,18.37 -67,20c-23.59,2.23 -46.59,-0.44 -69,-8c-10.83,-4.17 -20,-10.67 -27.5,-19.5c-12.44,-17.28 -21.44,-36.28 -27,-57c-9.64,-35.52 -16.97,-71.52 -22,-108c-5.49,-39.24 -10.15,-78.57 -14,-118c-0.67,-10.67 -0.67,-21.33 0,-32c1.89,-9.62 6.73,-17.45 14.5,-23.5c17.94,-13.66 37.94,-23.33 60,-29c48.61,-13.69 97.94,-22.52 148,-26.5zm-281,220c1.33,0 2.67,0 4,0c0.38,2.15 0.71,4.31 1,6.5c-3.97,19.31 -6.14,38.81 -6.5,58.5c-1.01,47.99 -1.68,95.99 -2,144c-30.37,14.77 -60.54,29.93 -90.5,45.5c-95.73,55.71 -177.23,127.87 -244.5,216.5c-49.48,68.29 -86.81,142.96 -112,224c-42.4,154.39 -31.06,304.72 34,451c13.4,26.48 28.07,52.15 44,77c21.45,28.45 43.28,56.62 65.5,84.5c-28.64,12.32 -57.3,24.65 -86,37c-27.76,13.05 -54.76,27.38 -81,43c-17.5,12.17 -35,24.33 -52.5,36.5c-7.76,-8.43 -14.76,-17.43 -21,-27c-71.28,-108.81 -114.28,-228.14 -129,-358c-15.15,-123.47 -3.82,-244.47 34,-363c64.02,-197.57 174.52,-363.74 331.5,-498.5c45.18,-38.6 93.85,-72.27 146,-101c53.63,-28.82 108.63,-54.32 165,-76.5zm626,0c22.96,6.82 45.29,15.32 67,25.5c130.77,61.97 246.27,145.13 346.5,249.5c105.77,112.12 182.44,242.12 230,390c47.21,159.65 52.21,320.65 15,483c-23.26,99.33 -64.43,190.16 -123.5,272.5c-2.72,2.03 -5.72,3.53 -9,4.5c-19.96,-8.47 -37.29,-20.63 -52,-36.5c-48.09,-28.38 -98.09,-53.04 -150,-74c-6,-3 -12,-6 -18,-9c-1.83,-0.9 -3.16,-2.23 -4,-4c5.2,-9.57 11.04,-18.74 17.5,-27.5c36.63,-47.25 70.3,-96.59 101,-148c40.8,-71.88 60.64,-149.21 59.5,-232c-0.16,-163.17 -50.33,-308.5 -150.5,-436c-52.15,-66.82 -112.65,-124.65 -181.5,-173.5c-19.17,-12.75 -38.83,-24.75 -59,-36c-28.24,-14.37 -56.41,-28.87 -84.5,-43.5c-1.07,-61.03 -3.24,-122.03 -6.5,-183c0.17,-6 0.33,-12 0.5,-18c0.41,-1.4 0.91,-2.73 1.5,-4zm-26,259c2.81,6.47 2.31,12.81 -1.5,19c-1.7,-6.39 -1.2,-12.73 1.5,-19zm-34,8c2.48,-0.18 4.31,0.82 5.5,3c1.07,4.88 2.74,9.55 5,14c4.33,1.62 8.83,2.79 13.5,3.5c3.9,4.98 7.4,10.14 10.5,15.5c1.38,-1.05 2.38,-2.38 3,-4c2.27,-7.49 4.94,-14.82 8,-22c0.84,-1.51 2,-2.01 3.5,-1.5c1.74,2.19 2.9,4.69 3.5,7.5c9.02,39.17 13.02,78.84 12,119c-0.38,4.71 -1.04,9.38 -2,14c-0.55,3.78 -2.55,6.45 -6,8c-1.64,-4.14 -4.47,-7.14 -8.5,-9c-1.4,0.37 -2.4,1.2 -3,2.5c1.26,2.92 2.92,5.59 5,8c-0.95,1.96 -2.29,3.62 -4,5c-6.42,2.61 -13.09,4.27 -20,5c-55.78,4.18 -105.45,-11.15 -149,-46c-14.88,-13.18 -25.21,-29.18 -31,-48c3.07,-10.07 9.4,-17.41 19,-22c35.6,-15.4 72.26,-27.74 110,-37c3.39,-0.75 6.73,-0.59 10,0.5c0.33,-0.5 0.67,-1 1,-1.5c-1.11,-2.05 -1.78,-4.21 -2,-6.5c5.32,0.77 10.65,0.93 16,0.5c0.51,-2.72 0.51,-5.55 0,-8.5zm-559,15c46.42,2.03 92.42,7.53 138,16.5c16.47,3.27 31.81,9.27 46,18c9.39,8.14 13.72,18.48 13,31c0.42,11.83 -3.08,22.33 -10.5,31.5c-34.19,35.34 -76.02,55 -125.5,59c-15.46,-0.47 -30.46,-3.3 -45,-8.5c-7.91,-3.23 -12.91,-8.9 -15,-17c-4.25,-1.13 -8.58,-1.79 -13,-2c-3.4,-3.6 -5.06,-7.93 -5,-13c4.64,-38.66 10.3,-77.16 17,-115.5zm-155,98c1.85,-0.28 3.18,0.39 4,2c-16.7,25.87 -35.86,49.87 -57.5,72c-47.78,59.16 -87.78,123.49 -120,193c-22,49.66 -37.33,101.33 -46,155c-3.38,-50.63 3.95,-99.63 22,-147c43.78,-107.59 109.62,-199.26 197.5,-275zm979,58c8.89,6.39 17.06,13.72 24.5,22c41.92,49.45 76.58,103.79 104,163c13.88,33.65 24.55,68.32 32,104c1.41,8.29 1.74,16.63 1,25c-7.84,-9.68 -14.18,-20.34 -19,-32c-11.74,-31.82 -25.41,-62.82 -41,-93c-28.41,-51.83 -57.08,-103.49 -86,-155c-6.01,-11.01 -11.17,-22.34 -15.5,-34zm-514,66c4.67,0 9.33,0 14,0c-1.13,73.54 -3.47,147.04 -7,220.5c2.91,23.24 4.57,46.58 5,70c-0.68,49.26 -3.18,98.43 -7.5,147.5c-0.68,7.79 -2.02,15.46 -4,23c-2.95,5.93 -7.78,9.1 -14.5,9.5c-4.76,2.73 -6.76,6.9 -6,12.5c-0.09,8.41 3.91,13.91 12,16.5c2.21,1.87 4.04,4.04 5.5,6.5c3.12,11.35 7.78,22.02 14,32c4.58,8.24 2.75,14.41 -5.5,18.5c-15.92,4.65 -31.92,8.98 -48,13c-3.79,1.39 -7.45,3.06 -11,5c-5.14,4.28 -5.14,8.62 0,13c21.79,0.24 43.46,-1.43 65,-5c60.55,-8.04 120.55,-19.04 180,-33c5.95,-1.07 11.95,-1.57 18,-1.5c0.76,9.97 1.26,19.97 1.5,30c1.37,124.03 0.04,248.03 -4,372c-0.25,19.99 -8.08,36.16 -23.5,48.5c-8.59,3.86 -17.25,7.53 -26,11c-5.78,5.11 -12.12,9.45 -19,13c-29.29,6.65 -56.62,17.98 -82,34c-9.02,8.35 -16.52,17.85 -22.5,28.5c-13.09,21.85 -25.43,44.18 -37,67c-8.31,11.54 -17.31,11.88 -27,1c-6.67,-13.66 -10.67,-27.99 -12,-43c0.56,-0.52 1.23,-0.86 2,-1c10.02,5.16 20.52,6.33 31.5,3.5c7.72,-3.32 7.88,-6.82 0.5,-10.5c-3.27,-11.07 -4.77,-22.4 -4.5,-34c-10.41,-0.44 -20.75,-1.61 -31,-3.5c-8.88,-2.69 -16.38,-7.52 -22.5,-14.5c-2.26,-4.39 -3.6,-9.05 -4,-14c-4.79,-8.45 -11.29,-15.29 -19.5,-20.5c-10.99,-8.82 -16.49,-20.32 -16.5,-34.5c-0.67,-24.67 -0.67,-49.33 0,-74c8.28,-256.62 14.95,-513.29 20,-770c0.73,-35.36 2.07,-70.69 4,-106c0.37,-5.7 1.03,-11.37 2,-17c0.95,-7.42 5.12,-11.58 12.5,-12.5c13.02,-0.69 26.02,-0.52 39,0.5c0.9,69 0.9,138 0,207c0.17,16.67 0.33,33.33 0.5,50c0.46,3.35 0.96,6.69 1.5,10c5.87,-1.63 9.37,0.7 10.5,7c2.52,2.83 4.52,2.49 6,-1c0.88,-3.29 1.55,-6.62 2,-10c0.78,-17.18 0.62,-34.35 -0.5,-51.5c-0.33,-1.17 -0.67,-2.33 -1,-3.5c-1.67,6.36 -3.51,12.7 -5.5,19c-0.67,0.67 -1.33,1.33 -2,2c-1.12,-1.45 -1.78,-3.12 -2,-5c-2.53,-17.88 -1.53,-35.54 3,-53c1.67,-1.33 3.33,-2.67 5,-4c1.54,-6.25 2.54,-12.58 3,-19c1.77,-37.01 3.77,-74.01 6,-111c0.63,-8.71 1.63,-17.38 3,-26c0.54,-2.58 1.7,-4.75 3.5,-6.5c-1.77,-2.18 -3.43,-4.35 -5,-6.5zm-383,8c2.59,0.75 4.42,2.42 5.5,5c6.9,16.14 15.57,31.14 26,45c5.83,5.17 11.67,10.33 17.5,15.5c14.94,9.94 29.61,20.28 44,31c2.83,2.83 5.67,5.67 8.5,8.5c4.08,7.08 8.58,13.92 13.5,20.5c3.04,1.07 6.21,1.57 9.5,1.5c8.85,-2.17 17.35,-1.33 25.5,2.5c14.23,11.23 27.57,23.56 40,37c-15.63,31.42 -31.13,62.92 -46.5,94.5c-11.72,26.5 -23.06,53.17 -34,80c-2.48,3.56 -5.31,3.73 -8.5,0.5c-5.87,-5.53 -11.37,-11.36 -16.5,-17.5c-34.34,-46.99 -61.67,-97.99 -82,-153c-18.37,-56.79 -19.21,-113.79 -2.5,-171zm759,1c1,-0.09 1.83,0.25 2.5,1c7.76,16.46 12.09,33.79 13,52c4.21,55.43 -5.79,108.1 -30,158c-21.91,46.19 -48.57,89.19 -80,129c-3.02,3.18 -6.18,6.18 -9.5,9c-11.31,-24.29 -21.81,-48.96 -31.5,-74c-23.41,-48.65 -45.58,-97.81 -66.5,-147.5c20.89,-7.52 41.89,-14.85 63,-22c37.45,-13.71 71.45,-33.04 102,-58c14.88,-13.96 27.21,-29.8 37,-47.5zm-585,479c4.31,-0.01 7.64,1.82 10,5.5c22.3,10.43 45.46,18.27 69.5,23.5c-0.9,122.66 -1.74,245.33 -2.5,368c-0.09,41.68 0.41,83.34 1.5,125c3.71,25.91 15.21,47.74 34.5,65.5c4.4,0.73 7.23,3.23 8.5,7.5c1.79,11.5 -0.54,22.17 -7,32c-6.06,5.16 -12.89,6.33 -20.5,3.5c-3.33,-1.67 -6.67,-3.33 -10,-5c-10,-8 -20,-16 -30,-24c-9.82,-7 -20.32,-12.83 -31.5,-17.5c-13.48,0.26 -23.48,-5.4 -30,-17c-2.86,-6.25 -5.53,-12.59 -8,-19c-1.83,-1.83 -3.67,-3.67 -5.5,-5.5c-4.88,-1.07 -9.55,-2.74 -14,-5c-2.06,-1.72 -3.72,-3.72 -5,-6c0.14,-0.77 0.48,-1.44 1,-2c5.27,-1.59 10.6,-2.92 16,-4c4.65,-2.46 7.48,-6.29 8.5,-11.5c1.43,-6.6 2.43,-13.27 3,-20c1.75,-27.97 2.75,-55.97 3,-84c1.1,-107 2.44,-214 4,-321c0.09,-29.76 1.59,-59.43 4.5,-89zm-78,362c5.34,-0.17 10.68,0 16,0.5c-1.12,1.04 -2.46,1.71 -4,2c-144.09,25.22 -270.42,85.89 -379,182c-15.97,14.63 -30.47,30.47 -43.5,47.5c-5.89,7.62 -10.06,16.12 -12.5,25.5c2.03,6.21 6.36,9.87 13,11c48.14,10.92 96.81,18.59 146,23c35.62,3.6 71.28,6.6 107,9c65.02,3.76 130.02,7.76 195,12c6.89,0.78 13.56,2.44 20,5c19.79,10.9 40.45,19.56 62,26c-7.92,1.65 -15.92,2.65 -24,3c-190.01,3.42 -380.01,3.09 -570,-1c-19.49,-1.19 -38.49,-4.86 -57,-11c-12.57,-4.69 -23.07,-12.19 -31.5,-22.5c-6.98,-19.84 -7.32,-39.84 -1,-60c9.45,-18.13 21.95,-33.97 37.5,-47.5c35.74,-29.71 74.07,-55.71 115,-78c79.25,-43.53 162.58,-76.86 250,-100c53.26,-12.15 106.93,-20.99 161,-26.5zm568,0c123.05,9.74 240.05,41.57 351,95.5c52.6,25.35 102.6,54.68 150,88c20.37,14.7 39.2,31.2 56.5,49.5c11.76,17.79 15.09,37.12 10,58c-8.69,32.33 -29.85,49.83 -63.5,52.5c-39.25,3.51 -78.58,5.18 -118,5c-128.33,0.67 -256.67,0.67 -385,0c-38.7,-0.05 -77.36,-1.05 -116,-3c-0.33,-0.33 -0.67,-0.67 -1,-1c14.23,-13.26 30.23,-23.59 48,-31c131.42,-8.09 262.76,-17.43 394,-28c25.17,-2.1 50.17,-5.44 75,-10c5.53,-1.06 10.86,-2.73 16,-5c5.26,-4.85 6.43,-10.69 3.5,-17.5c-5.39,-12.05 -12.39,-23.05 -21,-33c-40.08,-44.59 -85.58,-82.42 -136.5,-113.5c-56.88,-36.53 -117.88,-64.19 -183,-83c-30.55,-7.84 -61.22,-15.18 -92,-22c4.19,-0.18 8.19,-0.68 12,-1.5zm-275,21c10.18,-0.16 17.68,4.17 22.5,13c0.71,2.47 0.37,4.8 -1,7c-5.8,4.79 -11.63,4.62 -17.5,-0.5c-4.58,-3.75 -7.24,-8.59 -8,-14.5c0.63,-2.29 1.96,-3.95 4,-5zm656,443c25.76,0.09 51.42,1.59 77,4.5c2.74,0.8 5.41,1.8 8,3c18.55,24.89 36.72,50.05 54.5,75.5c4.24,4.82 8.24,9.82 12,15c2.38,2.72 5.05,5.05 8,7c1.61,-0.6 2.94,-1.6 4,-3c15,-24 30,-48 45,-72c6.11,-9.11 12.61,-17.95 19.5,-26.5c32.02,-0.9 64.02,-0.57 96,1c0.81,0.31 1.47,0.81 2,1.5c-41.64,61.47 -83.47,122.8 -125.5,184c-1.63,27.63 -2.8,55.3 -3.5,83c-30,0 -60,0 -90,0c0.17,-27 0,-54 -0.5,-81c-38.66,-55.98 -75.33,-113.31 -110,-172c-2.83,-5.67 -5.67,-11.33 -8.5,-17c3.99,-1.43 7.99,-2.43 12,-3zm-695,2c1.67,0 3.33,0 5,0c0,90.33 0,180.67 0,271c-27,0.17 -54,0 -81,-0.5c-37.94,-46.62 -78.11,-91.45 -120.5,-134.5c-2.09,44.31 -3.59,88.65 -4.5,133c-30.33,0 -60.67,0 -91,0c-0.79,-89.33 -1.46,-178.67 -2,-268c25.67,-0.17 51.34,0 77,0.5c42.83,42.83 85.67,85.67 128.5,128.5c2.26,-42.3 3.76,-84.63 4.5,-127c28.17,-0.78 56.17,-1.78 84,-3zm-584,1c38.67,-0.17 77.33,0 116,0.5c20.13,0.3 40.13,1.96 60,5c50.45,12.34 72.62,44.51 66.5,96.5c-0.97,13.25 -5.31,25.25 -13,36c-17.61,22.9 -40.77,36.73 -69.5,41.5c-23.47,4.32 -47.14,6.82 -71,7.5c0,27.67 0,55.33 0,83c-31.67,0 -63.33,0 -95,0c-0.82,-90.13 1.18,-180.13 6,-270zm940,0c93.34,0.17 186.67,0.84 280,2c1.05,24 2.05,48 3,72c-32,0 -64,0 -96,0c0,65.33 0,130.67 0,196c-30.33,0 -60.67,0 -91,0c-0.75,-64.67 -1.42,-129.33 -2,-194c-30.65,-1.64 -61.32,-2.97 -92,-4c-0.83,-24 -1.49,-48 -2,-72zm-1069,1c21.69,-0.36 43.36,0.14 65,1.5c3.19,0.2 6.19,1.03 9,2.5c1.2,1.06 1.86,2.39 2,4c-4.65,16.3 -10.15,32.3 -16.5,48c-27.94,71 -55.77,142 -83.5,213c-38.99,-0.98 -77.99,-1.65 -117,-2c-35.19,-86.54 -70.52,-173.04 -106,-259.5c34,-0.5 68,-0.67 102,-0.5c19.13,55.56 38.97,110.9 59.5,166c0.69,2.05 1.85,3.72 3.5,5c3.37,-6.07 6.2,-12.4 8.5,-19c16.02,-47.71 33.02,-95.05 51,-142c2.2,-5.24 5.04,-10.08 8.5,-14.5c4.81,-0.8 9.48,-1.64 14,-2.5zm840,0c54.33,0.28 108.67,0.61 163,1c0,23.33 0,46.67 0,70c-25.67,0.62 -51.34,1.45 -77,2.5c-13.25,-0.08 -26.25,1.58 -39,5c-15.88,14.38 -13.21,21.71 8,22c27.68,1.79 55.35,3.62 83,5.5c1.22,19.3 2.22,38.63 3,58c-26.01,-0.22 -52.01,0.28 -78,1.5c-16.27,0.7 -22.1,8.87 -17.5,24.5c3.51,2.17 7.34,3.33 11.5,3.5c34.65,1.33 69.32,1.83 104,1.5c0,24.67 0,49.33 0,74c-71.67,0 -143.33,0 -215,0c0,-88.67 0,-177.33 0,-266c18.12,-1.45 36.12,-2.45 54,-3z" fill="#000000" opacity="1"/>
   </g>
   <g>
    <path d="m2133.5,2732.5c11.09,0.61 21.76,3.11 32,7.5c14.52,5.59 28.52,12.26 42,20c14.88,9.8 17.05,21.97 6.5,36.5c-11.44,10.25 -24.94,15.41 -40.5,15.5c-13.67,0.67 -27.33,0.67 -41,0c-15.6,-0.95 -22.6,-9.28 -21,-25c0.48,-12.24 1.65,-24.4 3.5,-36.5c2.75,-9.59 8.92,-15.59 18.5,-18zm8,22c-2.04,1.05 -3.37,2.71 -4,5c0.76,5.91 3.42,10.75 8,14.5c5.87,5.12 11.7,5.29 17.5,0.5c1.37,-2.2 1.71,-4.53 1,-7c-4.82,-8.83 -12.32,-13.16 -22.5,-13z" fill="#000000" opacity="0.97"/>
   </g>
   <g>
    <path d="m1618.5,3270.5c10.29,-1.26 19.96,0.58 29,5.5c12.83,12.47 13.99,25.97 3.5,40.5c-10.11,10.57 -22.28,14.4 -36.5,11.5c-1.52,-2.6 -2.35,-5.43 -2.5,-8.5c-1.01,-15.42 -0.34,-30.75 2,-46c1.41,-1.28 2.91,-2.28 4.5,-3z" fill="#000000" opacity="0.96"/>
   </g>
  </symbol>
 </defs>
 <g class="layer">
  <title>Layer 1</title>
  <use id="svg_2" transform="matrix(0.119945, 0, 0, 0.119945, -4.33703, -4.86239)" x="-430.01" xlink:href="#svg_1" y="-533.38"/>
 </g>
</svg>
