<?xml version="1.0" encoding="UTF-8"?>
<!DOCTYPE svg PUBLIC "-//W3C//DTD SVG 1.1//EN" "http://www.w3.org/Graphics/SVG/1.1/DTD/svg11.dtd">
<svg xmlns="http://www.w3.org/2000/svg" version="1.1" width="4267px" height="4267px" style="shape-rendering:geometricPrecision; text-rendering:geometricPrecision; image-rendering:optimizeQuality; fill-rule:evenodd; clip-rule:evenodd" xmlns:xlink="http://www.w3.org/1999/xlink">
<g><path style="opacity:0.996" fill="#000000" d="M 2076.5,619.5 C 2448.42,610.873 2781.75,718.373 3076.5,942C 3338.71,1148.35 3522.21,1410.51 3627,1728.5C 3716.99,2011.89 3731.99,2299.22 3672,2590.5C 3600.32,2919.72 3444.82,3201.22 3205.5,3435C 2990.96,3639.64 2737.62,3773.64 2445.5,3837C 2090.75,3907.13 1752.08,3860.8 1429.5,3698C 1146.98,3549.15 927.146,3335.65 770,3057.5C 601.012,2749.23 533.678,2419.9 568,2069.5C 607.957,1710.72 747.291,1397.72 986,1130.5C 1196.64,900.82 1453.48,745.987 1756.5,666C 1861.73,639.61 1968.4,624.11 2076.5,619.5 Z M 2234.5,795.5 C 2355.64,792.684 2474.64,807.184 2591.5,839C 2671.49,861.413 2745.49,896.08 2813.5,943C 2985.48,1072.1 3060.65,1244.26 3039,1459.5C 3033.3,1504.99 3021.96,1548.99 3005,1591.5C 2998.78,1606.8 2989.94,1620.3 2978.5,1632C 2975.61,1634.61 2972.28,1636.44 2968.5,1637.5C 2966.73,1636.91 2965.07,1636.08 2963.5,1635C 2947.79,1613.63 2929.13,1595.29 2907.5,1580C 2898.37,1574.36 2889.37,1568.53 2880.5,1562.5C 2879.67,1535.51 2879.17,1508.51 2879,1481.5C 2874.72,1384.96 2843.39,1298.63 2785,1222.5C 2762.44,1197.94 2738.6,1174.77 2713.5,1153C 2707.5,1148.33 2701.5,1143.67 2695.5,1139C 2690.5,1136 2685.17,1133.83 2679.5,1132.5C 2678.56,1132.61 2677.72,1132.94 2677,1133.5C 2676.33,1135.17 2676.33,1136.83 2677,1138.5C 2686.82,1150.14 2696.15,1162.14 2705,1174.5C 2734.51,1226.2 2748.51,1281.87 2747,1341.5C 2742.37,1373.74 2732.7,1404.4 2718,1433.5C 2716.58,1436.01 2714.91,1438.34 2713,1440.5C 2711.2,1420.86 2711.03,1401.19 2712.5,1381.5C 2713.57,1340.36 2704.41,1301.69 2685,1265.5C 2676.41,1250.65 2667.08,1236.32 2657,1222.5C 2627.64,1184.8 2593.47,1152.3 2554.5,1125C 2536.73,1113.91 2518.07,1104.58 2498.5,1097C 2493.87,1095.44 2489.2,1095.27 2484.5,1096.5C 2488.14,1098.76 2492.14,1100.43 2496.5,1101.5C 2497.6,1102.63 2497.27,1103.46 2495.5,1104C 2491.12,1103.99 2486.78,1103.33 2482.5,1102C 2441.04,1084.4 2398.38,1070.4 2354.5,1060C 2271.17,1059.33 2187.83,1059.33 2104.5,1060C 2042.88,1059.75 1981.54,1063.75 1920.5,1072C 1806,1088.59 1707.33,1136.59 1624.5,1216C 1579.62,1257.88 1544.45,1306.71 1519,1362.5C 1507.55,1390.31 1498.88,1418.98 1493,1448.5C 1490.47,1457.7 1484.97,1464.53 1476.5,1469C 1435.33,1491.51 1398.16,1519.34 1365,1552.5C 1359.24,1563.02 1352.24,1572.68 1344,1581.5C 1324.33,1602.5 1304.67,1623.5 1285,1644.5C 1278.84,1617.72 1277.84,1590.72 1282,1563.5C 1289.71,1490.72 1309.37,1421.38 1341,1355.5C 1417.43,1201.05 1526.27,1074.22 1667.5,975C 1810.25,879.96 1967.25,822.626 2138.5,803C 2170.58,799.545 2202.58,797.045 2234.5,795.5 Z M 2527.5,1131.5 C 2516.81,1125.15 2506.81,1117.82 2497.5,1109.5C 2501.07,1108.75 2504.4,1109.58 2507.5,1112C 2514.67,1118 2521.34,1124.5 2527.5,1131.5 Z M 2099.5,1159.5 C 2177.64,1157.35 2254.3,1166.85 2329.5,1188C 2350.93,1194.13 2370.1,1204.3 2387,1218.5C 2391.71,1223.59 2394.54,1229.59 2395.5,1236.5C 2387.82,1303.96 2378.98,1371.29 2369,1438.5C 2365.33,1464.85 2359,1490.51 2350,1515.5C 2340.29,1535.55 2327.13,1553.05 2310.5,1568C 2298.76,1577.02 2285.43,1581.69 2270.5,1582C 2232.78,1582.42 2195.78,1577.42 2159.5,1567C 2157.33,1566.17 2155.83,1564.67 2155,1562.5C 2148.45,1543.52 2141.12,1524.85 2133,1506.5C 2131.67,1505.17 2130.33,1505.17 2129,1506.5C 2123.01,1519.46 2118.01,1532.79 2114,1546.5C 2111.6,1552.13 2108.1,1556.96 2103.5,1561C 2082.73,1572.7 2060.4,1579.37 2036.5,1581C 2012.91,1583.23 1989.91,1580.56 1967.5,1573C 1956.67,1568.83 1947.5,1562.33 1940,1553.5C 1927.56,1536.22 1918.56,1517.22 1913,1496.5C 1903.36,1460.98 1896.03,1424.98 1891,1388.5C 1885.51,1349.26 1880.85,1309.93 1877,1270.5C 1876.33,1259.83 1876.33,1249.17 1877,1238.5C 1878.89,1228.88 1883.73,1221.05 1891.5,1215C 1909.44,1201.34 1929.44,1191.67 1951.5,1186C 2000.11,1172.31 2049.44,1163.48 2099.5,1159.5 Z M 1818.5,1379.5 C 1819.83,1379.5 1821.17,1379.5 1822.5,1379.5C 1822.88,1381.65 1823.21,1383.81 1823.5,1386C 1819.53,1405.31 1817.36,1424.81 1817,1444.5C 1815.99,1492.49 1815.32,1540.49 1815,1588.5C 1784.63,1603.27 1754.46,1618.43 1724.5,1634C 1628.77,1689.71 1547.27,1761.87 1480,1850.5C 1430.52,1918.79 1393.19,1993.46 1368,2074.5C 1325.6,2228.89 1336.94,2379.22 1402,2525.5C 1415.4,2551.98 1430.07,2577.65 1446,2602.5C 1467.45,2630.95 1489.28,2659.12 1511.5,2687C 1482.86,2699.32 1454.2,2711.65 1425.5,2724C 1397.74,2737.05 1370.74,2751.38 1344.5,2767C 1327,2779.17 1309.5,2791.33 1292,2803.5C 1284.24,2795.07 1277.24,2786.07 1271,2776.5C 1199.72,2667.69 1156.72,2548.36 1142,2418.5C 1126.85,2295.03 1138.18,2174.03 1176,2055.5C 1240.02,1857.93 1350.52,1691.76 1507.5,1557C 1552.68,1518.4 1601.35,1484.73 1653.5,1456C 1707.13,1427.18 1762.13,1401.68 1818.5,1379.5 Z M 2444.5,1379.5 C 2467.46,1386.32 2489.79,1394.82 2511.5,1405C 2642.27,1466.97 2757.77,1550.13 2858,1654.5C 2963.77,1766.62 3040.44,1896.62 3088,2044.5C 3135.21,2204.15 3140.21,2365.15 3103,2527.5C 3079.74,2626.83 3038.57,2717.66 2979.5,2800C 2976.78,2802.03 2973.78,2803.53 2970.5,2804.5C 2950.54,2796.03 2933.21,2783.87 2918.5,2768C 2870.41,2739.62 2820.41,2714.96 2768.5,2694C 2762.5,2691 2756.5,2688 2750.5,2685C 2748.67,2684.1 2747.34,2682.77 2746.5,2681C 2751.7,2671.43 2757.54,2662.26 2764,2653.5C 2800.63,2606.25 2834.3,2556.91 2865,2505.5C 2905.8,2433.62 2925.64,2356.29 2924.5,2273.5C 2924.34,2110.33 2874.17,1965 2774,1837.5C 2721.85,1770.68 2661.35,1712.85 2592.5,1664C 2573.33,1651.25 2553.67,1639.25 2533.5,1628C 2505.26,1613.63 2477.09,1599.13 2449,1584.5C 2447.93,1523.47 2445.76,1462.47 2442.5,1401.5C 2442.67,1395.5 2442.83,1389.5 2443,1383.5C 2443.41,1382.1 2443.91,1380.77 2444.5,1379.5 Z M 2418.5,1638.5 C 2421.31,1644.97 2420.81,1651.31 2417,1657.5C 2415.3,1651.11 2415.8,1644.77 2418.5,1638.5 Z M 2384.5,1646.5 C 2386.98,1646.32 2388.81,1647.32 2390,1649.5C 2391.07,1654.38 2392.74,1659.05 2395,1663.5C 2399.33,1665.12 2403.83,1666.29 2408.5,1667C 2412.4,1671.98 2415.9,1677.14 2419,1682.5C 2420.38,1681.45 2421.38,1680.12 2422,1678.5C 2424.27,1671.01 2426.94,1663.68 2430,1656.5C 2430.84,1654.99 2432,1654.49 2433.5,1655C 2435.24,1657.19 2436.4,1659.69 2437,1662.5C 2446.02,1701.67 2450.02,1741.34 2449,1781.5C 2448.62,1786.21 2447.96,1790.88 2447,1795.5C 2446.45,1799.28 2444.45,1801.95 2441,1803.5C 2439.36,1799.36 2436.53,1796.36 2432.5,1794.5C 2431.1,1794.87 2430.1,1795.7 2429.5,1797C 2430.76,1799.92 2432.42,1802.59 2434.5,1805C 2433.55,1806.96 2432.21,1808.62 2430.5,1810C 2424.08,1812.61 2417.41,1814.27 2410.5,1815C 2354.72,1819.18 2305.05,1803.85 2261.5,1769C 2246.62,1755.82 2236.29,1739.82 2230.5,1721C 2233.57,1710.93 2239.9,1703.59 2249.5,1699C 2285.1,1683.6 2321.76,1671.26 2359.5,1662C 2362.89,1661.25 2366.23,1661.41 2369.5,1662.5C 2369.83,1662 2370.17,1661.5 2370.5,1661C 2369.39,1658.95 2368.72,1656.79 2368.5,1654.5C 2373.82,1655.27 2379.15,1655.43 2384.5,1655C 2385.01,1652.28 2385.01,1649.45 2384.5,1646.5 Z M 1825.5,1661.5 C 1871.92,1663.53 1917.92,1669.03 1963.5,1678C 1979.97,1681.27 1995.31,1687.27 2009.5,1696C 2018.89,1704.14 2023.22,1714.48 2022.5,1727C 2022.92,1738.83 2019.42,1749.33 2012,1758.5C 1977.81,1793.84 1935.98,1813.5 1886.5,1817.5C 1871.04,1817.03 1856.04,1814.2 1841.5,1809C 1833.59,1805.77 1828.59,1800.1 1826.5,1792C 1822.25,1790.87 1817.92,1790.21 1813.5,1790C 1810.1,1786.4 1808.44,1782.07 1808.5,1777C 1813.14,1738.34 1818.8,1699.84 1825.5,1661.5 Z M 1670.5,1759.5 C 1672.35,1759.22 1673.68,1759.89 1674.5,1761.5C 1657.8,1787.37 1638.64,1811.37 1617,1833.5C 1569.22,1892.66 1529.22,1956.99 1497,2026.5C 1475,2076.16 1459.67,2127.83 1451,2181.5C 1447.62,2130.87 1454.95,2081.87 1473,2034.5C 1516.78,1926.91 1582.62,1835.24 1670.5,1759.5 Z M 2649.5,1817.5 C 2658.39,1823.89 2666.56,1831.22 2674,1839.5C 2715.92,1888.95 2750.58,1943.29 2778,2002.5C 2791.88,2036.15 2802.55,2070.82 2810,2106.5C 2811.41,2114.79 2811.74,2123.13 2811,2131.5C 2803.16,2121.82 2796.82,2111.16 2792,2099.5C 2780.26,2067.68 2766.59,2036.68 2751,2006.5C 2722.59,1954.67 2693.92,1903.01 2665,1851.5C 2658.99,1840.49 2653.83,1829.16 2649.5,1817.5 Z M 2135.5,1883.5 C 2140.17,1883.5 2144.83,1883.5 2149.5,1883.5C 2148.37,1957.04 2146.03,2030.54 2142.5,2104C 2145.41,2127.24 2147.07,2150.58 2147.5,2174C 2146.82,2223.26 2144.32,2272.43 2140,2321.5C 2139.32,2329.29 2137.98,2336.96 2136,2344.5C 2133.05,2350.43 2128.22,2353.6 2121.5,2354C 2116.74,2356.73 2114.74,2360.9 2115.5,2366.5C 2115.41,2374.91 2119.41,2380.41 2127.5,2383C 2129.71,2384.87 2131.54,2387.04 2133,2389.5C 2136.12,2400.85 2140.78,2411.52 2147,2421.5C 2151.58,2429.74 2149.75,2435.91 2141.5,2440C 2125.58,2444.65 2109.58,2448.98 2093.5,2453C 2089.71,2454.39 2086.05,2456.06 2082.5,2458C 2077.36,2462.28 2077.36,2466.62 2082.5,2471C 2104.29,2471.24 2125.96,2469.57 2147.5,2466C 2208.05,2457.96 2268.05,2446.96 2327.5,2433C 2333.45,2431.93 2339.45,2431.43 2345.5,2431.5C 2346.26,2441.47 2346.76,2451.47 2347,2461.5C 2348.37,2585.53 2347.04,2709.53 2343,2833.5C 2342.75,2853.49 2334.92,2869.66 2319.5,2882C 2310.91,2885.86 2302.25,2889.53 2293.5,2893C 2287.72,2898.11 2281.38,2902.45 2274.5,2906C 2245.21,2912.65 2217.88,2923.98 2192.5,2940C 2183.48,2948.35 2175.98,2957.85 2170,2968.5C 2156.91,2990.35 2144.57,3012.68 2133,3035.5C 2124.69,3047.04 2115.69,3047.38 2106,3036.5C 2099.33,3022.84 2095.33,3008.51 2094,2993.5C 2094.56,2992.98 2095.23,2992.64 2096,2992.5C 2106.02,2997.66 2116.52,2998.83 2127.5,2996C 2135.22,2992.68 2135.38,2989.18 2128,2985.5C 2124.73,2974.43 2123.23,2963.1 2123.5,2951.5C 2113.09,2951.06 2102.75,2949.89 2092.5,2948C 2083.62,2945.31 2076.12,2940.48 2070,2933.5C 2067.74,2929.11 2066.4,2924.45 2066,2919.5C 2061.21,2911.05 2054.71,2904.21 2046.5,2899C 2035.51,2890.18 2030.01,2878.68 2030,2864.5C 2029.33,2839.83 2029.33,2815.17 2030,2790.5C 2038.28,2533.88 2044.95,2277.21 2050,2020.5C 2050.73,1985.14 2052.07,1949.81 2054,1914.5C 2054.37,1908.8 2055.03,1903.13 2056,1897.5C 2056.95,1890.08 2061.12,1885.92 2068.5,1885C 2081.52,1884.31 2094.52,1884.48 2107.5,1885.5C 2108.4,1954.5 2108.4,2023.5 2107.5,2092.5C 2107.67,2109.17 2107.83,2125.83 2108,2142.5C 2108.46,2145.85 2108.96,2149.19 2109.5,2152.5C 2115.37,2150.87 2118.87,2153.2 2120,2159.5C 2122.52,2162.33 2124.52,2161.99 2126,2158.5C 2126.88,2155.21 2127.55,2151.88 2128,2148.5C 2128.78,2131.32 2128.62,2114.15 2127.5,2097C 2127.17,2095.83 2126.83,2094.67 2126.5,2093.5C 2124.83,2099.86 2122.99,2106.2 2121,2112.5C 2120.33,2113.17 2119.67,2113.83 2119,2114.5C 2117.88,2113.05 2117.22,2111.38 2117,2109.5C 2114.47,2091.62 2115.47,2073.96 2120,2056.5C 2121.67,2055.17 2123.33,2053.83 2125,2052.5C 2126.54,2046.25 2127.54,2039.92 2128,2033.5C 2129.77,1996.49 2131.77,1959.49 2134,1922.5C 2134.63,1913.79 2135.63,1905.12 2137,1896.5C 2137.54,1893.92 2138.7,1891.75 2140.5,1890C 2138.73,1887.82 2137.07,1885.65 2135.5,1883.5 Z M 1752.5,1891.5 C 1755.09,1892.25 1756.92,1893.92 1758,1896.5C 1764.9,1912.64 1773.57,1927.64 1784,1941.5C 1789.83,1946.67 1795.67,1951.83 1801.5,1957C 1816.44,1966.94 1831.11,1977.28 1845.5,1988C 1848.33,1990.83 1851.17,1993.67 1854,1996.5C 1858.08,2003.58 1862.58,2010.42 1867.5,2017C 1870.54,2018.07 1873.71,2018.57 1877,2018.5C 1885.85,2016.33 1894.35,2017.17 1902.5,2021C 1916.73,2032.23 1930.07,2044.56 1942.5,2058C 1926.87,2089.42 1911.37,2120.92 1896,2152.5C 1884.28,2179 1872.94,2205.67 1862,2232.5C 1859.52,2236.06 1856.69,2236.23 1853.5,2233C 1847.63,2227.47 1842.13,2221.64 1837,2215.5C 1802.66,2168.51 1775.33,2117.51 1755,2062.5C 1736.63,2005.71 1735.79,1948.71 1752.5,1891.5 Z M 2511.5,1892.5 C 2512.5,1892.41 2513.33,1892.75 2514,1893.5C 2521.76,1909.96 2526.09,1927.29 2527,1945.5C 2531.21,2000.93 2521.21,2053.6 2497,2103.5C 2475.09,2149.69 2448.43,2192.69 2417,2232.5C 2413.98,2235.68 2410.82,2238.68 2407.5,2241.5C 2396.19,2217.21 2385.69,2192.54 2376,2167.5C 2352.59,2118.85 2330.42,2069.69 2309.5,2020C 2330.39,2012.48 2351.39,2005.15 2372.5,1998C 2409.95,1984.29 2443.95,1964.96 2474.5,1940C 2489.38,1926.04 2501.71,1910.2 2511.5,1892.5 Z M 1926.5,2371.5 C 1930.81,2371.49 1934.14,2373.32 1936.5,2377C 1958.8,2387.43 1981.96,2395.27 2006,2400.5C 2005.1,2523.16 2004.26,2645.83 2003.5,2768.5C 2003.41,2810.18 2003.91,2851.84 2005,2893.5C 2008.71,2919.41 2020.21,2941.24 2039.5,2959C 2043.9,2959.73 2046.73,2962.23 2048,2966.5C 2049.79,2978 2047.46,2988.67 2041,2998.5C 2034.94,3003.66 2028.11,3004.83 2020.5,3002C 2017.17,3000.33 2013.83,2998.67 2010.5,2997C 2000.5,2989 1990.5,2981 1980.5,2973C 1970.68,2966 1960.18,2960.17 1949,2955.5C 1935.52,2955.76 1925.52,2950.1 1919,2938.5C 1916.14,2932.25 1913.47,2925.91 1911,2919.5C 1909.17,2917.67 1907.33,2915.83 1905.5,2914C 1900.62,2912.93 1895.95,2911.26 1891.5,2909C 1889.44,2907.28 1887.78,2905.28 1886.5,2903C 1886.64,2902.23 1886.98,2901.56 1887.5,2901C 1892.77,2899.41 1898.1,2898.08 1903.5,2897C 1908.15,2894.54 1910.98,2890.71 1912,2885.5C 1913.43,2878.9 1914.43,2872.23 1915,2865.5C 1916.75,2837.53 1917.75,2809.53 1918,2781.5C 1919.1,2674.5 1920.44,2567.5 1922,2460.5C 1922.09,2430.74 1923.59,2401.07 1926.5,2371.5 Z M 1848.5,2733.5 C 1853.84,2733.33 1859.18,2733.5 1864.5,2734C 1863.38,2735.04 1862.04,2735.71 1860.5,2736C 1716.41,2761.22 1590.08,2821.89 1481.5,2918C 1465.53,2932.63 1451.03,2948.47 1438,2965.5C 1432.11,2973.12 1427.94,2981.62 1425.5,2991C 1427.53,2997.21 1431.86,3000.87 1438.5,3002C 1486.64,3012.92 1535.31,3020.59 1584.5,3025C 1620.12,3028.6 1655.78,3031.6 1691.5,3034C 1756.52,3037.76 1821.52,3041.76 1886.5,3046C 1893.39,3046.78 1900.06,3048.44 1906.5,3051C 1926.29,3061.9 1946.95,3070.56 1968.5,3077C 1960.58,3078.65 1952.58,3079.65 1944.5,3080C 1754.49,3083.42 1564.49,3083.09 1374.5,3079C 1355.01,3077.81 1336.01,3074.14 1317.5,3068C 1304.93,3063.31 1294.43,3055.81 1286,3045.5C 1279.02,3025.66 1278.68,3005.66 1285,2985.5C 1294.45,2967.37 1306.95,2951.53 1322.5,2938C 1358.24,2908.29 1396.57,2882.29 1437.5,2860C 1516.75,2816.47 1600.08,2783.14 1687.5,2760C 1740.76,2747.85 1794.43,2739.01 1848.5,2733.5 Z M 2416.5,2733.5 C 2539.55,2743.24 2656.55,2775.07 2767.5,2829C 2820.1,2854.35 2870.1,2883.68 2917.5,2917C 2937.87,2931.7 2956.7,2948.2 2974,2966.5C 2985.76,2984.29 2989.09,3003.62 2984,3024.5C 2975.31,3056.83 2954.15,3074.33 2920.5,3077C 2881.25,3080.51 2841.92,3082.18 2802.5,3082C 2674.17,3082.67 2545.83,3082.67 2417.5,3082C 2378.8,3081.95 2340.14,3080.95 2301.5,3079C 2301.17,3078.67 2300.83,3078.33 2300.5,3078C 2314.73,3064.74 2330.73,3054.41 2348.5,3047C 2479.92,3038.91 2611.26,3029.57 2742.5,3019C 2767.67,3016.9 2792.67,3013.56 2817.5,3009C 2823.03,3007.94 2828.36,3006.27 2833.5,3004C 2838.76,2999.15 2839.93,2993.31 2837,2986.5C 2831.61,2974.45 2824.61,2963.45 2816,2953.5C 2775.92,2908.91 2730.42,2871.08 2679.5,2840C 2622.62,2803.47 2561.62,2775.81 2496.5,2757C 2465.95,2749.16 2435.28,2741.82 2404.5,2735C 2408.69,2734.82 2412.69,2734.32 2416.5,2733.5 Z M 2141.5,2754.5 C 2151.68,2754.34 2159.18,2758.67 2164,2767.5C 2164.71,2769.97 2164.37,2772.3 2163,2774.5C 2157.2,2779.29 2151.37,2779.12 2145.5,2774C 2140.92,2770.25 2138.26,2765.41 2137.5,2759.5C 2138.13,2757.21 2139.46,2755.55 2141.5,2754.5 Z M 2797.5,3197.5 C 2823.26,3197.59 2848.92,3199.09 2874.5,3202C 2877.24,3202.8 2879.91,3203.8 2882.5,3205C 2901.05,3229.89 2919.22,3255.05 2937,3280.5C 2941.24,3285.32 2945.24,3290.32 2949,3295.5C 2951.38,3298.22 2954.05,3300.55 2957,3302.5C 2958.61,3301.9 2959.94,3300.9 2961,3299.5C 2976,3275.5 2991,3251.5 3006,3227.5C 3012.11,3218.39 3018.61,3209.55 3025.5,3201C 3057.52,3200.1 3089.52,3200.43 3121.5,3202C 3122.31,3202.31 3122.97,3202.81 3123.5,3203.5C 3081.86,3264.97 3040.03,3326.3 2998,3387.5C 2996.37,3415.13 2995.2,3442.8 2994.5,3470.5C 2964.5,3470.5 2934.5,3470.5 2904.5,3470.5C 2904.67,3443.5 2904.5,3416.5 2904,3389.5C 2865.34,3333.52 2828.67,3276.19 2794,3217.5C 2791.17,3211.83 2788.33,3206.17 2785.5,3200.5C 2789.49,3199.07 2793.49,3198.07 2797.5,3197.5 Z M 2102.5,3199.5 C 2104.17,3199.5 2105.83,3199.5 2107.5,3199.5C 2107.5,3289.83 2107.5,3380.17 2107.5,3470.5C 2080.5,3470.67 2053.5,3470.5 2026.5,3470C 1988.56,3423.38 1948.39,3378.55 1906,3335.5C 1903.91,3379.81 1902.41,3424.15 1901.5,3468.5C 1871.17,3468.5 1840.83,3468.5 1810.5,3468.5C 1809.71,3379.17 1809.04,3289.83 1808.5,3200.5C 1834.17,3200.33 1859.84,3200.5 1885.5,3201C 1928.33,3243.83 1971.17,3286.67 2014,3329.5C 2016.26,3287.2 2017.76,3244.87 2018.5,3202.5C 2046.67,3201.72 2074.67,3200.72 2102.5,3199.5 Z M 1518.5,3200.5 C 1557.17,3200.33 1595.83,3200.5 1634.5,3201C 1654.63,3201.3 1674.63,3202.96 1694.5,3206C 1744.95,3218.34 1767.12,3250.51 1761,3302.5C 1760.03,3315.75 1755.69,3327.75 1748,3338.5C 1730.39,3361.4 1707.23,3375.23 1678.5,3380C 1655.03,3384.32 1631.36,3386.82 1607.5,3387.5C 1607.5,3415.17 1607.5,3442.83 1607.5,3470.5C 1575.83,3470.5 1544.17,3470.5 1512.5,3470.5C 1511.68,3380.37 1513.68,3290.37 1518.5,3200.5 Z M 2458.5,3200.5 C 2551.84,3200.67 2645.17,3201.34 2738.5,3202.5C 2739.55,3226.5 2740.55,3250.5 2741.5,3274.5C 2709.5,3274.5 2677.5,3274.5 2645.5,3274.5C 2645.5,3339.83 2645.5,3405.17 2645.5,3470.5C 2615.17,3470.5 2584.83,3470.5 2554.5,3470.5C 2553.75,3405.83 2553.08,3341.17 2552.5,3276.5C 2521.85,3274.86 2491.18,3273.53 2460.5,3272.5C 2459.67,3248.5 2459.01,3224.5 2458.5,3200.5 Z M 1389.5,3201.5 C 1411.19,3201.14 1432.86,3201.64 1454.5,3203C 1457.69,3203.2 1460.69,3204.03 1463.5,3205.5C 1464.7,3206.56 1465.36,3207.89 1465.5,3209.5C 1460.85,3225.8 1455.35,3241.8 1449,3257.5C 1421.06,3328.5 1393.23,3399.5 1365.5,3470.5C 1326.51,3469.52 1287.51,3468.85 1248.5,3468.5C 1213.31,3381.96 1177.98,3295.46 1142.5,3209C 1176.5,3208.5 1210.5,3208.33 1244.5,3208.5C 1263.63,3264.06 1283.47,3319.4 1304,3374.5C 1304.69,3376.55 1305.85,3378.22 1307.5,3379.5C 1310.87,3373.43 1313.7,3367.1 1316,3360.5C 1332.02,3312.79 1349.02,3265.45 1367,3218.5C 1369.2,3213.26 1372.04,3208.42 1375.5,3204C 1380.31,3203.2 1384.98,3202.36 1389.5,3201.5 Z M 2229.5,3201.5 C 2283.83,3201.78 2338.17,3202.11 2392.5,3202.5C 2392.5,3225.83 2392.5,3249.17 2392.5,3272.5C 2366.83,3273.12 2341.16,3273.95 2315.5,3275C 2302.25,3274.92 2289.25,3276.58 2276.5,3280C 2260.62,3294.38 2263.29,3301.71 2284.5,3302C 2312.18,3303.79 2339.85,3305.62 2367.5,3307.5C 2368.72,3326.8 2369.72,3346.13 2370.5,3365.5C 2344.49,3365.28 2318.49,3365.78 2292.5,3367C 2276.23,3367.7 2270.4,3375.87 2275,3391.5C 2278.51,3393.67 2282.34,3394.83 2286.5,3395C 2321.15,3396.33 2355.82,3396.83 2390.5,3396.5C 2390.5,3421.17 2390.5,3445.83 2390.5,3470.5C 2318.83,3470.5 2247.17,3470.5 2175.5,3470.5C 2175.5,3381.83 2175.5,3293.17 2175.5,3204.5C 2193.62,3203.05 2211.62,3202.05 2229.5,3201.5 Z"/></g>
<g><path style="opacity:0.972" fill="#000000" d="M 2133.5,2732.5 C 2144.59,2733.11 2155.26,2735.61 2165.5,2740C 2180.02,2745.59 2194.02,2752.26 2207.5,2760C 2222.38,2769.8 2224.55,2781.97 2214,2796.5C 2202.56,2806.75 2189.06,2811.91 2173.5,2812C 2159.83,2812.67 2146.17,2812.67 2132.5,2812C 2116.9,2811.05 2109.9,2802.72 2111.5,2787C 2111.98,2774.76 2113.15,2762.6 2115,2750.5C 2117.75,2740.91 2123.92,2734.91 2133.5,2732.5 Z M 2141.5,2754.5 C 2139.46,2755.55 2138.13,2757.21 2137.5,2759.5C 2138.26,2765.41 2140.92,2770.25 2145.5,2774C 2151.37,2779.12 2157.2,2779.29 2163,2774.5C 2164.37,2772.3 2164.71,2769.97 2164,2767.5C 2159.18,2758.67 2151.68,2754.34 2141.5,2754.5 Z"/></g>
<g><path style="opacity:0.964" fill="#000000" d="M 1618.5,3270.5 C 1628.79,3269.24 1638.46,3271.08 1647.5,3276C 1660.33,3288.47 1661.49,3301.97 1651,3316.5C 1640.89,3327.07 1628.72,3330.9 1614.5,3328C 1612.98,3325.4 1612.15,3322.57 1612,3319.5C 1610.99,3304.08 1611.66,3288.75 1614,3273.5C 1615.41,3272.22 1616.91,3271.22 1618.5,3270.5 Z"/></g>
</svg>
